<?xml version="1.0" encoding="utf-8" ?>
<svg baseProfile="full" height="256" version="1.1" width="256" xmlns="http://www.w3.org/2000/svg" xmlns:ev="http://www.w3.org/2001/xml-events" xmlns:xlink="http://www.w3.org/1999/xlink"><defs /><polyline fill="none" points="114,55 113,56 109,56 108,57 107,57 106,58 105,58 103,60 102,60 100,62 99,62 98,63 97,63 95,65 94,65 93,66 92,66 91,67 90,67 89,68 88,68 86,70 85,70 84,71 80,71 79,72 75,72 74,73 72,73 71,74 69,74 68,75 67,75 66,76 65,76 64,77 63,77 62,78 61,78 60,79 59,79 58,80 57,80 55,82 54,82 51,85 51,86 50,87 50,88 49,89 49,90 47,92 47,94 46,95 46,96 45,97 45,98 44,99 44,101 43,102 43,105 42,106 42,124 43,125 43,126 44,126 44,125 46,123 46,122 47,121 47,120 49,118 50,118 52,116 53,116 54,115 55,115 56,114 57,114 58,113 59,113 60,112 61,112 63,110 64,110 65,109 66,109 67,108 70,108 71,107 78,107 79,108 85,108 86,109 92,109 93,110 95,110 96,111 97,111 98,112 108,112 109,111 110,111 111,110 113,110 114,109 124,109 128,113 128,114 129,115 129,116 132,119 134,119 135,120 137,120 139,122 140,121 140,119 141,118 141,116 145,112 146,112 147,111 149,111 150,112 151,112 152,113 153,113 154,114 155,114 157,116 157,118 158,119 158,122 159,123 159,124 158,125 158,126 157,127 157,128 155,130 154,130 153,131 153,133 154,134 154,136 155,137 155,140 156,141 156,144 157,145 157,147 158,148 158,150 159,151 159,152 160,153 160,154 161,155 161,156 167,162 168,162 170,164 172,164 173,165 183,165 184,164 190,164 191,163 195,163 196,162 197,162 198,161 199,161 200,160 201,160 203,158 204,158 206,156 207,156 210,153 211,153 213,151 213,150 215,148 215,147 216,146 216,145 217,144 217,143 218,142 218,141 219,140 219,137 220,136 220,127 221,126 221,118 220,117 220,100 219,99 219,96 218,95 218,92 217,91 217,89 216,88 216,87 215,86 215,85 214,84 214,83 213,82 213,81 211,79 211,78 208,75 208,74 203,69 202,69 200,67 199,67 198,66 197,66 196,65 195,65 194,64 192,64 191,63 188,63 187,62 182,62 181,61 175,61 174,60 170,60 169,59 163,59 162,58 157,58 156,57 153,57 152,56 134,56 133,57 127,57 126,56 118,56 117,55" stroke="green" stroke-width="2" /></svg>