<?xml version="1.0" encoding="utf-8" ?>
<svg baseProfile="full" height="256" version="1.1" width="256" xmlns="http://www.w3.org/2000/svg" xmlns:ev="http://www.w3.org/2001/xml-events" xmlns:xlink="http://www.w3.org/1999/xlink"><defs /><polyline fill="none" points="126,68 125,69 120,69 119,70 115,70 114,71 113,71 112,72 111,72 110,73 108,73 107,74 106,74 105,75 103,75 102,76 101,76 100,77 99,77 98,78 96,78 95,79 92,79 91,80 84,80 83,81 74,81 73,82 70,82 69,83 67,83 65,85 64,85 57,92 57,93 55,95 55,96 54,97 54,98 51,101 51,102 44,109 44,110 42,112 42,113 41,114 41,115 40,116 40,118 39,119 39,123 38,124 38,127 37,128 37,130 36,131 36,133 35,134 35,139 34,140 35,141 35,151 36,152 36,156 37,157 37,159 38,160 38,161 39,162 39,163 41,165 41,166 44,169 45,169 47,171 48,171 49,172 50,172 51,173 52,173 53,174 54,174 55,175 57,175 58,176 64,176 65,175 69,175 70,174 72,174 73,173 74,173 75,172 77,172 79,170 80,170 81,169 83,169 84,168 85,168 87,166 88,166 90,164 91,164 96,159 97,159 100,156 101,156 107,150 108,150 110,148 111,148 111,146 110,145 110,144 109,143 109,142 107,140 107,131 110,128 111,128 112,127 113,127 114,126 117,126 118,127 119,127 123,131 123,132 124,133 125,133 126,132 127,132 128,131 129,131 130,130 130,128 131,127 131,123 132,122 133,122 134,121 136,121 137,120 143,120 144,119 148,119 149,118 150,118 152,116 152,112 153,111 153,106 154,105 154,100 155,99 155,98 156,97 156,96 161,91 161,90 162,89 162,88 163,87 163,86 164,85 164,82 163,81 163,78 162,77 162,76 158,72 156,72 155,71 153,71 152,70 149,70 148,69 139,69 138,68" stroke="green" stroke-linejoin="round" stroke-width="2" /></svg>